# xmcd
#
# Track frame offsets: 
#        150
#        9541
#        21659
#        30389
#        39738
#        53546
#        63451
#        74371
#        84742
#        93857
#        106775
#        117852
#        129169
#        139966
#        153092
#        162433
#        171565
#        182607
#        191746
#        203538
#        212739
#        225003
#        237585
#        249879
#        261407
#
# Disc length: 3682 seconds
#
# Revision: 1
# Processed by: cddbd v1.5.2PL0 Copyright (c) Steve Scherf et al.
# Submitted via: ExactAudioCopyFreeDBPlugin 1.0
#
DISCID=500e6019
DTITLE=Various Artist - Soul Sixties [Real Gone Music]
DYEAR=2016
DGENRE=Soul
TTITLE0=Ann Cole - Don't Stop the Wedding
TTITLE1=Bob and Earl - Oh Baby Doll
TTITLE2=Clyde McPhatter - Lover Please
TTITLE3=Eugene Church - The Right Girl, the Right Time
TTITLE4=Carla Thomas - I'll Bring it on Home to You
TTITLE5=Fontella Bass - Bad Boy
TTITLE6=Benny Spellman - Lipstick Traces
TTITLE7=Gene Allison - Stay a Little Longer
TTITLE8=Joel Scott - You're My Only Love
TTITLE9=The Contours - Do You Love Me
TTITLE10=Johnny "Guitar" Watson - What You Do to Me
TTITLE11=Otis Redding - These Arms of Mine
TTITLE12=Barbara Lynn - You'll Lose a Good Thing
TTITLE13=Lou Rawls - The Bride
TTITLE14=Major Lance - Everytime
TTITLE15=Rex Garvin - Oh Yeah
TTITLE16=Mary Wells - The One Who Really Loves You
TTITLE17=Maureen Gray - Slop Time
TTITLE18=Dee Dee Sharp - The Night
TTITLE19=Gerri Granger - Don't Want Your Letters
TTITLE20=The Crystals - He's Sure the Boy I Love
TTITLE21=Martha and The Vandellas - I'll Have to Let Him Go
TTITLE22=Arthur Alexander - Anna (Go to Him)
TTITLE23=Brook Benton - Walk on the Wild Side
TTITLE24=Esther Phillips - Release Me
EXTD=
EXTT0=
EXTT1=
EXTT2=
EXTT3=
EXTT4=
EXTT5=
EXTT6=
EXTT7=
EXTT8=
EXTT9=
EXTT10=
EXTT11=
EXTT12=
EXTT13=
EXTT14=
EXTT15=
EXTT16=
EXTT17=
EXTT18=
EXTT19=
EXTT20=
EXTT21=
EXTT22=
EXTT23=
EXTT24=
PLAYORDER=
